<svg version="1.1" viewBox="0.0 0.0 100.0 100.0" fill="none" stroke="none" stroke-linecap="square" stroke-miterlimit="10" xmlns:xlink="http://www.w3.org/1999/xlink" xmlns="http://www.w3.org/2000/svg"><clipPath id="p.0"><path d="m0 0l100.0 0l0 100.0l-100.0 0l0 -100.0z" clip-rule="nonzero"/></clipPath><g clip-path="url(#p.0)"><path fill="#000000" fill-opacity="0.0" d="m0 0l100.0 0l0 100.0l-100.0 0z" fill-rule="evenodd"/><path fill="#888888" d="m37.007874 50.0l0 0c0 -7.175354 5.8167725 -12.992126 12.992126 -12.992126l0 0c3.4457245 0 6.7503242 1.3688087 9.186821 3.8053055c2.4364967 2.4364967 3.8053055 5.7410965 3.8053055 9.186821l0 0c0 7.175354 -5.8167725 12.992126 -12.992126 12.992126l0 0c-7.175354 0 -12.992126 -5.8167725 -12.992126 -12.992126z" fill-rule="evenodd"/><path stroke="#888888" stroke-width="1.0" stroke-linejoin="round" stroke-linecap="butt" d="m37.007874 50.0l0 0c0 -7.175354 5.8167725 -12.992126 12.992126 -12.992126l0 0c3.4457245 0 6.7503242 1.3688087 9.186821 3.8053055c2.4364967 2.4364967 3.8053055 5.7410965 3.8053055 9.186821l0 0c0 7.175354 -5.8167725 12.992126 -12.992126 12.992126l0 0c-7.175354 0 -12.992126 -5.8167725 -12.992126 -12.992126z" fill-rule="evenodd"/></g></svg>