<svg version="1.1" viewBox="0.0 0.0 100.0 100.0" fill="none" stroke="none" stroke-linecap="square" stroke-miterlimit="10" xmlns:xlink="http://www.w3.org/1999/xlink" xmlns="http://www.w3.org/2000/svg"><clipPath id="p.0"><path d="m0 0l100.0 0l0 100.0l-100.0 0l0 -100.0z" clip-rule="nonzero"/></clipPath><g clip-path="url(#p.0)"><path fill="#000000" fill-opacity="0.0" d="m0 0l100.0 0l0 100.0l-100.0 0z" fill-rule="evenodd"/><path fill="#ffffff" d="m46.740158 12.393701l6.519684 0l0 17.6063l-6.519684 0z" fill-rule="evenodd"/><path stroke="#ffffff" stroke-width="4.0" stroke-linejoin="round" stroke-linecap="butt" d="m46.740158 12.393701l6.519684 0l0 17.6063l-6.519684 0z" fill-rule="evenodd"/><path fill="#353535" d="m74.28661 21.103273l4.598427 4.598425l-12.4409485 12.440945l-4.598423 -4.598423z" fill-rule="evenodd"/><path stroke="#353535" stroke-width="4.0" stroke-linejoin="round" stroke-linecap="butt" d="m74.28661 21.103273l4.598427 4.598425l-12.4409485 12.440945l-4.598423 -4.598423z" fill-rule="evenodd"/><path fill="#3c3c3c" d="m87.6063 46.740158l0 6.519684l-17.6063 0l0 -6.519684z" fill-rule="evenodd"/><path stroke="#3c3c3c" stroke-width="4.0" stroke-linejoin="round" stroke-linecap="butt" d="m87.6063 46.740158l0 6.519684l-17.6063 0l0 -6.519684z" fill-rule="evenodd"/><path fill="#434343" d="m78.883606 74.299736l-4.598427 4.598427l-12.4409485 -12.4409485l4.598427 -4.598423z" fill-rule="evenodd"/><path stroke="#434343" stroke-width="4.0" stroke-linejoin="round" stroke-linecap="butt" d="m78.883606 74.299736l-4.598427 4.598427l-12.4409485 -12.4409485l4.598427 -4.598423z" fill-rule="evenodd"/><path fill="#646464" d="m53.259842 87.6063l-6.519684 0l0 -17.6063l6.519684 0z" fill-rule="evenodd"/><path stroke="#666666" stroke-width="4.0" stroke-linejoin="round" stroke-linecap="butt" d="m53.259842 87.6063l-6.519684 0l0 -17.6063l6.519684 0z" fill-rule="evenodd"/><path fill="#999999" d="m25.713388 78.89673l-4.598427 -4.598427l12.440947 -12.440945l4.598423 4.598423z" fill-rule="evenodd"/><path stroke="#999999" stroke-width="4.0" stroke-linejoin="round" stroke-linecap="butt" d="m25.713388 78.89673l-4.598427 -4.598427l12.440947 -12.440945l4.598423 4.598423z" fill-rule="evenodd"/><path fill="#b7b7b7" d="m12.393701 53.259842l0 -6.519684l17.6063 0l0 6.519684z" fill-rule="evenodd"/><path stroke="#b7b7b7" stroke-width="4.0" stroke-linejoin="round" stroke-linecap="butt" d="m12.393701 53.259842l0 -6.519684l17.6063 0l0 6.519684z" fill-rule="evenodd"/><path fill="#d9d9d9" d="m21.103273 25.713388l4.598425 -4.598427l12.440945 12.440947l-4.598423 4.598423z" fill-rule="evenodd"/><path stroke="#d9d9d9" stroke-width="4.0" stroke-linejoin="round" stroke-linecap="butt" d="m21.103273 25.713388l4.598425 -4.598427l12.440945 12.440947l-4.598423 4.598423z" fill-rule="evenodd"/></g></svg>